<svg xmlns="http://www.w3.org/2000/svg"
     viewBox="0 0 1781.33 803.55"
     preserveAspectRatio="xMidYMid meet"
     width="360"
     height="162"
     role="img"
     aria-label="QBE Digital Solutions Logo"
     focusable="false">
  <g>
    <path fill="#ffffff" d="M514.41,583.32c-29.58,15.12-63.05,23.71-98.56,23.71-119.76,0-216.84-97.08-216.84-216.84s97.08-216.84,216.84-216.84,216.84,97.08,216.84,216.84c0,27.65-5.23,54.06-14.66,78.37l97.56,75.45c23.71-46.11,37.1-98.4,37.1-153.82,0-186.03-150.81-336.84-336.84-336.84S79.02,204.16,79.02,390.19s150.81,336.84,336.84,336.84c74.73,0,143.76-24.35,199.63-65.53l-101.08-78.17Z"/>
    <path fill="#ffffff" d="M1050.48,262.38c62.33,7.07,119.45,38.64,155.5,89.46,17.87,25.18,35.41,86.93,35.41,86.93,6.18,33.35,5.4,71.25.31,111.97-13.73,83.34-58.26,130.09-130.38,162.29-8.84,3.95-19.15,10.24-27.65,12.81-24.72,7.46-48.8,14.61-74.21,18.52-77.31,11.9-140.04,5.19-213.61-16.37-14.46-4.24-30.9-9.12-44.46-15.46-46.9-21.91-88.38-50.82-129.26-81.96l-78.48-59.76c-47.68-36.31-106.69-51.2-166.7-51.34l-41.14-.09c-11.28-.03-19.21-.39-31.04-1.62,23.28-18.99,34.53-23.11,55.48-33.28,67.62-32.79,140.3-31.07,209.44-2.1,39.96,16.74,74.97,39.61,110.08,64.46l39.74,28.13c11.57,8.19,24.6,16.24,37.47,22.15,74.53,34.21,146.87,51.6,230.03,42.17,30.3-3.44,58.66-13.95,85.17-27.95,24.05-12.7,46.3-47.73,58.29-72.65,13.4-27.84,10.87-60.97,1.77-89.36-5.56-17.33-16.01-30.95-28.56-43.43-57.68-57.37-147.88-49.69-194.65,13.23-40.76,57.08-20.34,141.67,25.18,191.98-73.61-4.93-126.62-20.82-154.76-41.6l-1.21-65.99.57-450.17,110.94.18.21,273.61c70.96-77.16,160.51-64.75,160.51-64.75Z"/>
    <path fill="#ffffff" d="M1474.32,264.5c-125.92,0-227.99,107.19-227.99,239.42s102.08,239.42,227.99,239.42c88.24,0,174.96-48.49,212.86-125.5-36.91-13.26-99.64-46.79-100.87-44.42-28.64,54.8-61.82,61.32-115.51,61.32-58.61,0-107.72-44.94-120.91-105.43h349.75c.38.86.72,1.67,1.09,2.52,1.01-9.16,1.59-18.47,1.59-27.92,0-132.23-102.08-239.42-227.99-239.42ZM1352.16,455.11c15.93-55.83,63.02-96.31,118.64-96.31s102.71,40.48,118.64,96.31h-237.28Z"/>
  </g>
</svg>
